<svg xmlns="http://www.w3.org/2000/svg" width="1024" height="1024" viewBox="0 0 1024 1024" version="1.1">
	<path d="M 525 112 C 525.825 112.533, 526.950 112.969, 527.500 112.969 C 528.050 112.969, 527.825 112.533, 527 112 C 526.175 111.467, 525.050 111.031, 524.500 111.031 C 523.950 111.031, 524.175 111.467, 525 112 M 536.813 116.683 C 537.534 116.972, 538.397 116.936, 538.729 116.604 C 539.061 116.272, 538.471 116.036, 537.417 116.079 C 536.252 116.127, 536.015 116.364, 536.813 116.683 M 541 118 C 541.825 118.533, 542.950 118.969, 543.500 118.969 C 544.050 118.969, 543.825 118.533, 543 118 C 542.175 117.467, 541.050 117.031, 540.500 117.031 C 539.950 117.031, 540.175 117.467, 541 118 M 549 121 C 549.825 121.533, 550.950 121.969, 551.500 121.969 C 552.050 121.969, 551.825 121.533, 551 121 C 550.175 120.467, 549.050 120.031, 548.500 120.031 C 547.950 120.031, 548.175 120.467, 549 121 M 557 123.831 C 557.825 124.341, 559.625 125.059, 561 125.427 C 562.737 125.892, 563.042 125.813, 562 125.169 C 561.175 124.659, 559.375 123.941, 558 123.573 C 556.263 123.108, 555.958 123.187, 557 123.831 M 452.500 127.535 C 449.999 128.740, 449.916 128.878, 452 128.369 C 454.834 127.677, 458.018 126.053, 456.500 126.076 C 455.950 126.084, 454.150 126.740, 452.500 127.535 M 442 131.500 C 440.625 132.286, 439.950 132.929, 440.500 132.929 C 441.050 132.929, 442.625 132.286, 444 131.500 C 445.375 130.714, 446.050 130.071, 445.500 130.071 C 444.950 130.071, 443.375 130.714, 442 131.500 M 587 135 C 587.825 135.533, 588.950 135.969, 589.500 135.969 C 590.050 135.969, 589.825 135.533, 589 135 C 588.175 134.467, 587.050 134.031, 586.500 134.031 C 585.950 134.031, 586.175 134.467, 587 135 M 601.733 140.124 C 602.412 140.808, 603.219 141.115, 603.526 140.807 C 603.834 140.499, 603.279 139.940, 602.293 139.564 C 600.868 139.022, 600.753 139.136, 601.733 140.124 M 606 142 C 606.825 142.533, 607.950 142.969, 608.500 142.969 C 609.050 142.969, 608.825 142.533, 608 142 C 607.175 141.467, 606.050 141.031, 605.500 141.031 C 604.950 141.031, 605.175 141.467, 606 142 M 611 143.393 C 611 143.609, 611.698 144.054, 612.552 144.382 C 613.442 144.723, 613.843 144.555, 613.493 143.989 C 612.906 143.038, 611 142.583, 611 143.393 M 406.507 144.989 C 406.157 145.555, 406.558 145.723, 407.448 145.382 C 409.180 144.717, 409.497 144, 408.059 144 C 407.541 144, 406.843 144.445, 406.507 144.989 M 619 146.393 C 619 146.609, 619.698 147.054, 620.552 147.382 C 621.442 147.723, 621.843 147.555, 621.493 146.989 C 620.906 146.038, 619 145.583, 619 146.393 M 390 151 C 389.099 151.582, 388.975 151.975, 389.691 151.985 C 390.346 151.993, 391.160 151.550, 391.500 151 C 392.267 149.758, 391.921 149.758, 390 151 M 647 157 C 647.825 157.533, 648.950 157.969, 649.500 157.969 C 650.050 157.969, 649.825 157.533, 649 157 C 648.175 156.467, 647.050 156.031, 646.500 156.031 C 645.950 156.031, 646.175 156.467, 647 157 M 652.523 158.836 C 653.060 159.326, 655.065 160.251, 656.977 160.891 C 658.890 161.531, 660.015 161.654, 659.477 161.164 C 658.940 160.674, 656.935 159.749, 655.023 159.109 C 653.110 158.469, 651.985 158.346, 652.523 158.836 M 354 164 C 353.175 164.533, 352.950 164.969, 353.500 164.969 C 354.050 164.969, 355.175 164.533, 356 164 C 356.825 163.467, 357.050 163.031, 356.500 163.031 C 355.950 163.031, 354.825 163.467, 354 164 M 665 163.393 C 665 163.609, 665.698 164.054, 666.552 164.382 C 667.442 164.723, 667.843 164.555, 667.493 163.989 C 666.906 163.038, 665 162.583, 665 163.393 M 346 167 C 345.175 167.533, 344.950 167.969, 345.500 167.969 C 346.050 167.969, 347.175 167.533, 348 167 C 348.825 166.467, 349.050 166.031, 348.500 166.031 C 347.950 166.031, 346.825 166.467, 346 167 M 338 170 C 336.172 171.181, 337.751 171.181, 340.500 170 C 341.819 169.433, 341.989 169.122, 341 169.086 C 340.175 169.055, 338.825 169.467, 338 170 M 332.500 172 C 330.870 172.701, 330.812 172.872, 332.191 172.930 C 333.121 172.968, 334.160 172.550, 334.500 172 C 335.211 170.850, 335.176 170.850, 332.500 172 M 687.733 172.124 C 688.412 172.808, 689.219 173.115, 689.526 172.807 C 689.834 172.499, 689.279 171.940, 688.293 171.564 C 686.868 171.022, 686.753 171.136, 687.733 172.124 M 704 178.500 C 705.375 179.286, 706.950 179.929, 707.500 179.929 C 708.050 179.929, 707.375 179.286, 706 178.500 C 704.625 177.714, 703.050 177.071, 702.500 177.071 C 701.950 177.071, 702.625 177.714, 704 178.500 M 309 181 C 308.099 181.582, 307.975 181.975, 308.691 181.985 C 309.346 181.993, 310.160 181.550, 310.500 181 C 311.267 179.758, 310.921 179.758, 309 181 M 713 182 C 713.825 182.533, 714.950 182.969, 715.500 182.969 C 716.050 182.969, 715.825 182.533, 715 182 C 714.175 181.467, 713.050 181.031, 712.500 181.031 C 711.950 181.031, 712.175 181.467, 713 182 M 300 184.500 C 298.625 185.286, 297.950 185.929, 298.500 185.929 C 299.050 185.929, 300.625 185.286, 302 184.500 C 303.375 183.714, 304.050 183.071, 303.500 183.071 C 302.950 183.071, 301.375 183.714, 300 184.500 M 723 186 C 723.825 186.533, 724.950 186.969, 725.500 186.969 C 726.050 186.969, 725.825 186.533, 725 186 C 724.175 185.467, 723.050 185.031, 722.500 185.031 C 721.950 185.031, 722.175 185.467, 723 186 M 290.554 187.902 C 288.696 188.629, 288.708 188.690, 290.805 189.239 C 292.014 189.555, 292.774 189.444, 292.495 188.992 C 292.216 188.540, 292.553 187.943, 293.244 187.664 C 293.935 187.386, 294.050 187.154, 293.500 187.149 C 292.950 187.144, 291.624 187.483, 290.554 187.902 M 729.768 189.168 C 730.350 189.750, 731.415 190.028, 732.137 189.788 C 732.886 189.538, 732.432 189.085, 731.080 188.731 C 729.417 188.296, 729.026 188.426, 729.768 189.168 M 300.733 193.124 C 301.412 193.808, 302.219 194.115, 302.526 193.807 C 302.834 193.499, 302.279 192.940, 301.293 192.564 C 299.868 192.022, 299.753 192.136, 300.733 193.124 M 310 197 C 310.825 197.533, 311.950 197.969, 312.500 197.969 C 313.050 197.969, 312.825 197.533, 312 197 C 311.175 196.467, 310.050 196.031, 309.500 196.031 C 308.950 196.031, 309.175 196.467, 310 197 M 705.360 209 C 705.360 214.225, 705.529 216.363, 705.735 213.750 C 705.941 211.137, 705.941 206.863, 705.735 204.250 C 705.529 201.637, 705.360 203.775, 705.360 209 M 695.439 233 C 695.439 248.125, 695.578 254.313, 695.748 246.750 C 695.917 239.188, 695.917 226.813, 695.748 219.250 C 695.578 211.688, 695.439 217.875, 695.439 233 M 662 217 C 661.175 217.533, 660.950 217.969, 661.500 217.969 C 662.050 217.969, 663.175 217.533, 664 217 C 664.825 216.467, 665.050 216.031, 664.500 216.031 C 663.950 216.031, 662.825 216.467, 662 217 M 364 218.430 C 364 218.705, 364.900 219.411, 366 220 C 367.100 220.589, 368 220.845, 368 220.570 C 368 220.295, 367.100 219.589, 366 219 C 364.900 218.411, 364 218.155, 364 218.430 M 652 221 C 651.099 221.582, 650.975 221.975, 651.691 221.985 C 652.346 221.993, 653.160 221.550, 653.500 221 C 654.267 219.758, 653.921 219.758, 652 221 M 410.733 238.124 C 411.412 238.808, 412.219 239.115, 412.526 238.807 C 412.834 238.499, 412.279 237.940, 411.293 237.564 C 409.868 237.022, 409.753 237.136, 410.733 238.124 M 610 238 C 609.175 238.533, 608.950 238.969, 609.500 238.969 C 610.050 238.969, 611.175 238.533, 612 238 C 612.825 237.467, 613.050 237.031, 612.500 237.031 C 611.950 237.031, 610.825 237.467, 610 238 M 605.507 239.989 C 605.157 240.555, 605.558 240.723, 606.448 240.382 C 608.180 239.717, 608.497 239, 607.059 239 C 606.541 239, 605.843 239.445, 605.507 239.989 M 649 240 C 647.718 240.828, 647.754 240.972, 649.250 240.985 C 650.212 240.993, 651 240.550, 651 240 C 651 238.780, 650.887 238.780, 649 240 M 372.237 276.250 L 372.474 312.500 372.750 276.786 C 373.007 243.395, 373.138 241.109, 374.763 241.631 C 376.233 242.103, 376.269 242.023, 375 241.110 C 374.175 240.516, 373.163 240.024, 372.750 240.015 C 372.337 240.007, 372.107 256.313, 372.237 276.250 M 600 242 C 599.175 242.533, 598.950 242.969, 599.500 242.969 C 600.050 242.969, 601.175 242.533, 602 242 C 602.825 241.467, 603.050 241.031, 602.500 241.031 C 601.950 241.031, 600.825 241.467, 600 242 M 643.441 242.555 C 641.611 244.022, 641.643 244.042, 644 242.920 C 647.061 241.462, 647.628 241, 646.358 241 C 645.821 241, 644.509 241.700, 643.441 242.555 M 635.507 245.989 C 635.157 246.555, 635.558 246.723, 636.448 246.382 C 638.180 245.717, 638.497 245, 637.059 245 C 636.541 245, 635.843 245.445, 635.507 245.989 M 432 247 C 432.825 247.533, 434.175 247.945, 435 247.914 C 435.989 247.878, 435.819 247.567, 434.500 247 C 431.751 245.819, 430.172 245.819, 432 247 M 705.079 247.583 C 705.127 248.748, 705.364 248.985, 705.683 248.188 C 705.972 247.466, 705.936 246.603, 705.604 246.271 C 705.272 245.939, 705.036 246.529, 705.079 247.583 M 445 252 C 445.825 252.533, 446.950 252.969, 447.500 252.969 C 448.050 252.969, 447.825 252.533, 447 252 C 446.175 251.467, 445.050 251.031, 444.500 251.031 C 443.950 251.031, 444.175 251.467, 445 252 M 452 255 C 452.825 255.533, 453.950 255.969, 454.500 255.969 C 455.050 255.969, 454.825 255.533, 454 255 C 453.175 254.467, 452.050 254.031, 451.500 254.031 C 450.950 254.031, 451.175 254.467, 452 255 M 412.733 258.124 C 413.412 258.808, 414.219 259.115, 414.526 258.807 C 414.834 258.499, 414.279 257.940, 413.293 257.564 C 411.868 257.022, 411.753 257.136, 412.733 258.124 M 593 264 C 592.175 264.533, 591.950 264.969, 592.500 264.969 C 593.050 264.969, 594.175 264.533, 595 264 C 595.825 263.467, 596.050 263.031, 595.500 263.031 C 594.950 263.031, 593.825 263.467, 593 264 M 429.733 265.124 C 430.412 265.808, 431.219 266.115, 431.526 265.807 C 431.834 265.499, 431.279 264.940, 430.293 264.564 C 428.868 264.022, 428.753 264.136, 429.733 265.124 M 476 264.393 C 476 264.609, 476.698 265.054, 477.552 265.382 C 478.442 265.723, 478.843 265.555, 478.493 264.989 C 477.906 264.038, 476 263.583, 476 264.393 M 589 266 C 588.099 266.582, 587.975 266.975, 588.691 266.985 C 589.346 266.993, 590.160 266.550, 590.500 266 C 591.267 264.758, 590.921 264.758, 589 266 M 711.564 268.293 C 711.940 269.279, 712.499 269.834, 712.807 269.526 C 713.115 269.219, 712.808 268.412, 712.124 267.733 C 711.136 266.753, 711.022 266.868, 711.564 268.293 M 486.083 268.365 C 486.313 268.565, 487.625 269.265, 489 269.920 C 491.357 271.042, 491.389 271.022, 489.559 269.555 C 487.966 268.279, 484.711 267.164, 486.083 268.365 M 492.733 271.124 C 493.412 271.808, 494.219 272.115, 494.526 271.807 C 494.834 271.499, 494.279 270.940, 493.293 270.564 C 491.868 270.022, 491.753 270.136, 492.733 271.124 M 575 272 C 574.099 272.582, 573.975 272.975, 574.691 272.985 C 575.346 272.993, 576.160 272.550, 576.500 272 C 577.267 270.758, 576.921 270.758, 575 272 M 713.252 274.500 C 713.263 276.700, 713.468 277.482, 713.707 276.238 C 713.946 274.994, 713.937 273.194, 713.687 272.238 C 713.437 271.282, 713.241 272.300, 713.252 274.500 M 501 274.577 C 501 275.252, 506.195 277.139, 506.690 276.644 C 506.917 276.417, 505.729 275.753, 504.051 275.168 C 502.373 274.583, 501 274.317, 501 274.577 M 548.500 283.535 C 545.988 284.745, 545.906 284.882, 548 284.378 C 549.375 284.046, 550.928 283.376, 551.450 282.888 C 552.746 281.677, 552.034 281.833, 548.500 283.535 M 696.750 287.706 C 697.987 287.944, 700.013 287.944, 701.250 287.706 C 702.487 287.467, 701.475 287.272, 699 287.272 C 696.525 287.272, 695.513 287.467, 696.750 287.706 M 487 290 C 487.825 290.533, 488.950 290.969, 489.500 290.969 C 490.050 290.969, 489.825 290.533, 489 290 C 488.175 289.467, 487.050 289.031, 486.500 289.031 C 485.950 289.031, 486.175 289.467, 487 290 M 241.872 296.892 L 237.980 300.785 238.240 446.812 L 238.500 592.839 241 595.511 C 244.795 599.567, 245.965 599.932, 258.694 601.017 C 278.976 602.746, 281.069 602.987, 298.500 605.599 C 362.837 615.241, 420.497 638.839, 467.913 674.934 C 472.242 678.229, 482.316 686.989, 490.301 694.400 C 511.044 713.653, 511.969 713.658, 531.848 694.649 C 566.292 661.712, 607.690 637.540, 658.037 620.966 C 668.192 617.623, 678.300 614.503, 680.500 614.032 C 682.700 613.562, 687.650 612.448, 691.500 611.558 C 713.599 606.450, 730.962 603.895, 759.723 601.521 C 769.196 600.739, 777.746 599.668, 778.723 599.141 C 779.701 598.615, 781.625 596.981, 783 595.511 L 785.500 592.839 785.760 447.582 L 786.020 302.325 783.730 298.927 C 779.342 292.415, 775.801 291.955, 749.890 294.529 C 672.085 302.256, 599.533 328.548, 547.500 367.870 C 540.327 373.291, 524.754 387.045, 516.709 395.064 L 510.918 400.836 501.682 391.668 C 496.602 386.626, 491.095 381.375, 489.445 380 C 487.794 378.625, 483.981 375.446, 480.971 372.935 C 452.579 349.244, 407.659 326.206, 363.467 312.670 C 350.153 308.592, 331.115 303.605, 324 302.331 C 322.625 302.085, 319.565 301.453, 317.200 300.926 C 312.355 299.848, 287.616 296.054, 281.500 295.451 C 246.575 292.011, 246.761 292.004, 241.872 296.892 M 523 294.500 C 521.625 295.286, 520.976 295.945, 521.559 295.965 C 522.141 295.984, 523.491 295.339, 524.559 294.532 C 527.028 292.664, 526.239 292.648, 523 294.500 M 517.507 296.989 C 517.157 297.555, 517.558 297.723, 518.448 297.382 C 520.180 296.717, 520.497 296, 519.059 296 C 518.541 296, 517.843 296.445, 517.507 296.989 M 261.126 444.097 C 261.222 513.068, 261.506 571.416, 261.756 573.757 C 262.297 578.811, 261.095 578.439, 281.500 579.875 C 316.580 582.344, 354.135 591.110, 391.849 605.631 C 426.819 619.095, 462.453 639.125, 491.750 661.785 L 500 668.166 500 547.324 L 500 426.483 489.394 415.215 C 444.834 367.878, 384.835 337.794, 306.500 323.510 C 298.378 322.029, 280.402 319.899, 271.226 319.330 L 260.951 318.693 261.126 444.097 M 737.500 320.592 C 730.900 321.341, 723.475 322.388, 721 322.920 C 718.525 323.451, 714.263 324.179, 711.529 324.537 C 702.979 325.658, 669.176 334.678, 653.500 340.022 C 625.691 349.501, 602.216 360.774, 580.933 374.868 C 567.034 384.072, 566.348 384.580, 554.574 394.401 C 544.998 402.388, 525.025 422.804, 523.905 425.749 C 522.752 428.782, 522.693 667, 523.845 667 C 524.310 667, 525.547 666.051, 526.595 664.891 C 530.895 660.129, 559.129 640.934, 576.150 631.199 C 599.222 618.004, 636.222 601.831, 655.241 596.628 C 658.134 595.837, 664.550 594.061, 669.500 592.681 C 682.044 589.185, 699.380 585.069, 704 584.491 C 706.915 584.127, 715.526 582.737, 717.500 582.314 C 718.600 582.077, 726.700 581.209, 735.500 580.383 C 744.300 579.558, 753.862 578.652, 756.750 578.369 L 762 577.856 762 448.428 L 762 319 755.750 319.116 C 752.313 319.179, 744.100 319.844, 737.500 320.592 M 407 742.899 C 397.554 745.058, 391.438 747.537, 384.785 751.904 C 366.934 763.623, 357.008 783.654, 356.452 809.080 C 356.203 820.495, 356.697 824.764, 359.617 836.413 C 365.114 858.345, 383.179 876.485, 404.038 881.019 C 412.572 882.875, 432.049 881.871, 439.719 879.181 C 455.302 873.715, 467.577 861.113, 473.671 844.324 C 477.571 833.582, 477.978 834, 463.625 834 L 451.250 834 450.644 837.031 C 449.628 842.108, 443.832 849.889, 438.340 853.549 C 424.733 862.616, 405.315 861.134, 394.408 850.195 C 376.074 831.808, 376.514 787.953, 395.195 771.610 C 407.085 761.209, 426.989 760.644, 439.401 770.356 C 443.947 773.912, 448.618 780.869, 450.063 786.235 L 451.077 790 463.968 790 L 476.859 790 475.071 783.750 C 467.716 758.042, 448.411 743.289, 421 742.428 C 415.225 742.247, 408.925 742.459, 407 742.899 M 29 812 L 29 880 73 880 L 117 880 117 869.500 L 117 859 85 859 L 53 859 53 840.500 L 53 822 83 822 L 113 822 113 812.500 L 113 803 83 803 L 53 803 53 783.840 L 53 764.679 85 765.361 L 117 766.042 117 755.021 L 117 744 73 744 L 29 744 29 812 M 205.942 765.750 C 205.883 788.046, 205.087 797.584, 203.641 793.305 C 202.357 789.501, 192.394 781.293, 186.247 778.973 C 173.933 774.326, 158.062 778.321, 147.668 788.683 C 141.900 794.433, 135.755 806.668, 134.057 815.781 C 132.352 824.933, 132.896 841.149, 135.187 849.500 C 139.016 863.456, 149.268 875.613, 160.868 879.951 C 166.058 881.892, 168.393 882.177, 176.244 881.827 C 187.402 881.331, 193.199 878.655, 201.011 870.395 L 206 865.120 206 872.560 L 206 880 217 880 L 228 880 228 812 L 228 744 217 744 L 206 744 205.942 765.750 M 960 811.500 L 960 879 972 879 L 984 879 984 811.500 L 984 744 972 744 L 960 744 960 811.500 M 720 766.500 L 720 779 712.500 779 L 705 779 705 788 L 705 797 712.500 797 L 720 797 720.038 822.750 C 720.076 848.643, 720.273 852.415, 722.061 861.377 C 723.699 869.593, 731.410 877.075, 739.890 878.676 C 744.029 879.457, 756.143 879.434, 760.250 878.637 L 764 877.909 764 869.596 L 764 861.283 757.838 861.196 C 754.449 861.148, 750.457 860.604, 748.968 859.987 C 743.861 857.871, 743.527 855.863, 743.193 825.250 L 742.886 797 753.443 797 L 764 797 764 788 L 764 779 753.443 779 L 742.886 779 743.193 766.498 L 743.500 753.996 731.750 753.998 L 720 754 720 766.500 M 530.500 776.714 C 512.174 781.134, 501.147 790.297, 495 806.214 C 488.915 821.968, 488.972 837.181, 495.175 853.287 C 500.477 867.053, 511.634 876.452, 527.460 880.482 C 548.553 885.854, 571.496 875.441, 580.499 856.411 C 587.755 841.073, 587.827 818.972, 580.674 802.797 C 577.284 795.131, 566.937 784.329, 560 781.213 C 549.720 776.595, 538.248 774.846, 530.500 776.714 M 823.405 777.517 C 816.788 779.034, 812.907 781.203, 809.148 785.484 L 806 789.070 806 784.035 L 806 779 794 779 L 782 779 782 829 L 782 879 793.750 879.001 L 805.500 879.001 805.219 850.804 C 804.890 817.838, 805.462 814.486, 812.632 807.315 C 817.845 802.103, 823.895 800.117, 833.750 800.385 L 841 800.582 841 789.336 L 841 778.091 837.750 777.589 C 830.408 776.456, 828.082 776.444, 823.405 777.517 M 880.902 778.415 C 866.586 783.077, 856.518 792.317, 851.301 805.583 C 847.631 814.912, 845.536 827.396, 846.452 834.462 C 849.764 859.989, 861.853 875.157, 883.265 880.648 C 903.364 885.803, 926.890 875.576, 935.808 857.808 C 940.964 847.535, 942.327 840.324, 941.725 826.500 C 940.963 808.994, 937.782 800.800, 927.597 790.108 C 915.531 777.441, 897.646 772.962, 880.902 778.415 M 648.281 778.460 C 641.477 779.994, 635.053 783.898, 630.155 789.476 C 628.420 791.453, 626.969 792.716, 626.931 792.285 C 626.893 791.853, 626.857 788.688, 626.851 785.250 L 626.841 779 615.421 779 L 604 779 604 829 L 604 879 615.500 879 L 627 879 627.022 846.250 C 627.042 816.427, 627.211 813.132, 628.913 809.384 C 632.404 801.698, 641.046 797.364, 651.069 798.273 C 657.991 798.900, 661.682 800.900, 665.015 805.827 L 667.500 809.500 667.787 844.250 L 668.074 879 679.590 879 L 691.107 879 690.803 839.750 L 690.500 800.500 687.689 794.776 C 681.118 781.395, 664.954 774.703, 648.281 778.460 M 250.249 817.750 C 250.660 854.878, 250.770 856.725, 252.881 861.872 C 257.438 872.983, 263.603 877.982, 275.914 880.549 C 290.694 883.631, 304.592 878.449, 313.119 866.676 L 315.941 862.781 315.588 870.891 L 315.235 879 326.118 879 L 337 879 337 829 L 337 779 325.500 779 L 314 779 313.978 811.750 C 313.958 841.534, 313.788 844.862, 312.098 848.500 C 308.267 856.749, 302.488 860.442, 293.500 860.385 C 282.786 860.318, 277.288 855.781, 275.097 845.201 C 274.441 842.031, 274 827.666, 274 809.451 L 274 779 261.910 779 L 249.821 779 250.249 817.750 M 532.994 796.934 C 525.377 799.251, 520.257 804.270, 517.383 812.234 C 515.258 818.126, 514.462 834.139, 515.942 841.241 C 520.423 862.744, 545.107 869.388, 556.725 852.218 C 566.278 838.101, 563.175 809.108, 551.166 800.270 C 546.403 796.766, 538.387 795.294, 532.994 796.934 M 888.843 796.975 C 881.273 799.262, 875.345 805.718, 872.743 814.510 C 870.695 821.430, 870.538 837.211, 872.452 843.586 C 875.799 854.727, 884.707 862, 895.007 862 C 910.912 862, 920.686 845.413, 917.927 823.103 C 915.559 803.962, 903.015 792.693, 888.843 796.975 M 167.979 801.135 C 165.005 803.369, 162.492 806.516, 160.500 810.500 C 157.587 816.326, 157.501 816.907, 157.540 830.500 C 157.571 841.528, 157.942 845.289, 159.289 848.216 C 163.447 857.255, 173.519 862.802, 183.619 861.615 C 193.318 860.475, 200.775 854.020, 203.594 844.326 C 205.827 836.642, 205.224 817.029, 202.599 812 C 197.937 803.069, 191.064 798.882, 179.979 798.219 C 172.688 797.783, 172.321 797.872, 167.979 801.135" stroke="none" fill="#000000" fill-rule="evenodd"/>
</svg>